<?xml version="1.0" standalone="no"?>
<!DOCTYPE svg PUBLIC "-//W3C//DTD SVG 20010904//EN"
 "http://www.w3.org/TR/2001/REC-SVG-20010904/DTD/svg10.dtd">
<svg version="1.0" xmlns="http://www.w3.org/2000/svg"
 width="512.000000pt" height="512.000000pt" viewBox="0 0 512.000000 512.000000"
 preserveAspectRatio="xMidYMid meet">
<metadata>
Created by potrace 1.14, written by Peter Selinger 2001-2017
</metadata>
<g transform="translate(0.000000,512.000000) scale(0.100000,-0.100000)"
fill="#000000" stroke="none">
<path d="M845 5098 c-79 -26 -155 -78 -199 -136 -19 -26 -40 -53 -46 -60 -6
-6 -20 -40 -32 -75 -21 -62 -21 -69 -22 -1607 -1 -850 2 -1567 7 -1594 22
-125 113 -243 230 -301 82 -40 147 -51 290 -49 53 0 97 -2 98 -5 1 -3 2 -158
3 -343 1 -221 5 -341 12 -348 7 -7 28 1 70 26 32 20 74 45 92 55 18 11 45 27
58 36 28 18 40 14 125 -39 120 -75 144 -86 156 -76 9 7 12 80 12 296 0 158 0
312 1 343 l0 55 348 0 347 -1 -5 -45 c-22 -219 17 -436 111 -624 334 -668
1225 -814 1750 -287 174 175 263 346 314 606 11 56 13 250 4 318 -23 161 -96
346 -189 481 -59 86 -199 224 -282 279 -132 87 -280 147 -427 172 -90 16 -275
19 -356 6 -27 -5 -52 -5 -55 -1 -3 5 -5 657 -5 1451 0 1388 0 1443 -18 1466
l-19 23 -1156 -1 c-1130 -1 -1158 -1 -1217 -21z"/>
</g>
</svg>
